<svg xmlns="http://www.w3.org/2000/svg" width="526" height="171.391" viewBox="0 0 526 171.391"><path fill="#F26522" d="M69.632 102.461c0-8.419-2.13-14.892-6.385-19.416-4.258-4.522-10.418-6.785-18.484-6.785-5.289 0-9.97 1.209-14.047 3.628-4.079 2.418-6.923 5.152-8.536 8.196v-9.81h-22.18v69.736h22.852v-38.563c0-3.941 1.052-7.345 3.159-10.213 2.104-2.865 5.219-4.3 9.343-4.3 4.033 0 6.944 1.055 8.738 3.158 1.792 2.106 2.688 5.442 2.688 10.01v39.907h22.852v-45.548zm56.458 24.455c-.807 2.062-2.375 3.875-4.705 5.441-2.332 1.568-5.108 2.353-8.334 2.353-5.736 0-9.903-1.835-12.502-5.509-1.613-2.328-2.734-5.822-3.36-10.48h51.351v-2.553c0-12.093-3.226-21.769-9.679-29.023-6.453-7.256-15.325-10.884-26.616-10.884-10.666 0-19.605 3.562-26.818 10.682-7.215 7.122-10.821 15.923-10.821 26.403 0 11.199 3.472 20.111 10.418 26.739 6.944 6.63 16.333 9.942 28.162 9.942 9.051 0 16.623-2.171 22.718-6.517 6.093-4.344 9.948-9.876 11.561-16.594h-21.375zm-25.407-29.695c2.688-3.762 6.541-5.643 11.561-5.643 3.674 0 6.765 1.366 9.275 4.098 2.508 2.733 3.942 6.16 4.301 10.279h-28.497c.716-3.762 1.835-6.672 3.36-8.734zm83.478 49.984c3.495 1.881 7.616 2.821 12.367 2.821 8.96 0 16.085-3.336 21.374-10.01 5.287-6.672 7.932-15.385 7.932-26.134 0-11.375-2.823-20.49-8.469-27.343-5.646-6.854-13.308-10.279-22.987-10.279-3.675 0-7.147.785-10.418 2.353-3.272 1.567-6.207 4.145-8.805 7.726l.134-8.063h-21.911v93.115h22.853v-31.441c1.79 2.956 4.434 5.374 7.93 7.255zm-8.738-34.532c0-5.731 1.254-10.346 3.764-13.84 2.508-3.493 5.915-5.24 10.216-5.24 4.301 0 7.683 1.703 10.149 5.106 2.464 3.404 3.697 7.974 3.697 13.706 0 6.093-1.233 10.996-3.697 14.713-2.466 3.718-5.847 5.575-10.149 5.575-4.661 0-8.156-1.633-10.485-4.903-2.331-3.269-3.495-8.308-3.495-15.117z"/><path fill="#0072BC" d="M254.195 52.075h-22.853v95.937h21.777v-8.465c2.33 3.674 5.196 6.338 8.604 7.995 3.405 1.657 7.168 2.485 11.292 2.485 8.96 0 16.333-3.38 22.113-10.145 5.779-6.762 8.67-16.191 8.67-28.284 0-10.3-2.713-18.765-8.133-25.396-5.424-6.628-12.48-9.943-21.172-9.943-4.572 0-8.65.963-12.233 2.889-3.585 1.928-6.274 4.457-8.065 7.593v-34.666zm2.89 46.49c2.464-3.313 5.982-4.972 10.552-4.972 4.211 0 7.528 1.703 9.946 5.106 2.42 3.404 3.631 8.018 3.631 13.84 0 6.271-1.211 11.197-3.631 14.779-2.418 3.583-5.914 5.375-10.484 5.375s-7.999-1.68-10.284-5.038c-2.285-3.359-3.428-8.083-3.428-14.177.001-6.626 1.232-11.598 3.698-14.913zm91.409 33.323c-2.287 2.688-5.67 4.031-10.15 4.031-3.406 0-5.961-.672-7.662-2.017-1.703-1.343-2.553-3.269-2.553-5.776 0-2.688.918-4.725 2.756-6.114 1.834-1.388 4.412-2.438 7.729-3.158 3.496-.625 6.271-1.186 8.334-1.68 2.061-.491 3.719-1.096 4.975-1.813v4.973c-.002 5.016-1.144 8.866-3.429 11.554zm5.173 16.124h22.988c-.539-1.163-1.1-2.755-1.682-4.771-.584-2.016-.875-4.858-.875-8.532v-35.472c0-7.793-2.734-13.57-8.199-17.333-5.467-3.762-13.264-5.643-23.391-5.643-11.918 0-20.59 2.263-26.01 6.785-5.424 4.524-8.133 10.101-8.133 16.729h21.373c0-1.7.918-3.582 2.756-5.644 1.836-2.06 4.682-3.09 8.535-3.09 2.959 0 5.557.65 7.797 1.948 2.24 1.3 3.359 3.113 3.359 5.441 0 3.943-3.34 6.315-10.014 7.122-6.678.806-11.719 1.524-15.123 2.149-6.721 1.074-11.988 3.271-15.795 6.584-3.811 3.314-5.713 8.062-5.713 14.243 0 6.539 2.082 11.757 6.25 15.653s10.15 5.845 17.947 5.845c5.195 0 9.746-.853 13.643-2.553 3.898-1.701 6.877-3.716 8.939-6.046l1.348 6.585zm57.936-23.783l-12.77-45.953h-24.197c11.127 30.278 17.818 48.485 20.07 54.62 2.25 6.138 3.379 10.279 3.379 12.43 0 2.062-.793 3.83-2.373 5.308-1.582 1.478-3.73 2.217-6.451 2.217h-7.904v18.542h12.963c7.938 0 13.693-1.255 17.264-3.762 3.57-2.509 6.416-6.54 8.533-12.093l27.781-77.261h-23.525l-12.77 45.952zm45.014-54.51c1.332 0 2.633.342 3.902 1.025 1.27.683 2.258 1.662 2.967 2.934.707 1.272 1.061 2.6 1.061 3.981 0 1.366-.348 2.682-1.045 3.942-.699 1.263-1.676 2.242-2.936 2.939-1.26.698-2.574 1.046-3.949 1.046s-2.691-.349-3.949-1.046c-1.258-.698-2.238-1.677-2.941-2.939-.699-1.262-1.051-2.577-1.051-3.942 0-1.382.355-2.708 1.068-3.981.711-1.271 1.701-2.25 2.971-2.934 1.269-.684 2.57-1.025 3.902-1.025zm0 1.313c-1.115 0-2.201.285-3.256.856-1.057.571-1.881 1.388-2.479 2.451-.596 1.063-.893 2.169-.893 3.319 0 1.143.291 2.237.877 3.286s1.404 1.865 2.457 2.451c1.053.585 2.148.878 3.293.878 1.143 0 2.24-.293 3.293-.878 1.051-.585 1.869-1.401 2.451-2.451.582-1.048.873-2.144.873-3.286 0-1.15-.297-2.257-.889-3.319-.592-1.063-1.418-1.879-2.479-2.451-1.057-.57-2.141-.856-3.248-.856zm-3.483 11.004v-8.527h2.938c1.002 0 1.729.079 2.178.236s.807.433 1.074.824c.268.393.4.81.4 1.25 0 .624-.225 1.166-.67 1.629-.445.462-1.039.721-1.777.776.301.126.543.277.727.452.342.336.764.899 1.262 1.69l1.041 1.669h-1.674l-.76-1.345c-.598-1.058-1.08-1.72-1.445-1.984-.252-.195-.621-.292-1.104-.289h-.811v3.618h-1.379zm1.377-4.802h1.674c.801 0 1.346-.118 1.637-.355s.438-.551.438-.941c0-.251-.07-.476-.211-.674-.141-.199-.336-.347-.584-.444-.25-.098-.711-.146-1.385-.146h-1.568v2.56zm-24.41 65.926h4.766v4.763h-4.766zm28.17-4.287l4.098.571c-.449 2.816-1.6 5.021-3.449 6.613s-4.123 2.39-6.818 2.39c-3.375 0-6.09-1.104-8.141-3.309-2.053-2.206-3.078-5.367-3.078-9.482 0-2.662.441-4.991 1.324-6.988s2.229-3.494 4.033-4.492c1.805-.999 3.77-1.498 5.893-1.498 2.68 0 4.873.678 6.576 2.035 1.705 1.355 2.797 3.282 3.277 5.777l-4.049.618c-.389-1.658-1.074-2.906-2.063-3.744-.986-.838-2.178-1.257-3.576-1.257-2.113 0-3.828.756-5.148 2.266s-1.98 3.898-1.98 7.167c0 3.313.637 5.723 1.908 7.225s2.932 2.253 4.979 2.253c1.646 0 3.02-.502 4.119-1.507 1.103-1.005 1.8-2.551 2.095-4.638zm6.098-3.31c0-4.564 1.271-7.946 3.814-10.145 2.125-1.827 4.717-2.74 7.773-2.74 3.396 0 6.174 1.11 8.33 3.331s3.232 5.29 3.232 9.205c0 3.173-.477 5.669-1.43 7.487-.955 1.817-2.342 3.229-4.166 4.236-1.822 1.006-3.811 1.51-5.967 1.51-3.459 0-6.256-1.106-8.389-3.32-2.131-2.212-3.197-5.401-3.197-9.564zm4.287.012c0 3.154.691 5.519 2.076 7.088s3.125 2.354 5.225 2.354c2.084 0 3.818-.789 5.201-2.366 1.385-1.577 2.076-3.982 2.076-7.216 0-3.047-.695-5.354-2.088-6.925s-3.121-2.355-5.189-2.355c-2.098 0-3.84.781-5.225 2.344s-2.076 3.92-2.076 7.076zm23.804 12.348v-24.721h3.764v3.49c.773-1.207 1.805-2.178 3.09-2.912 1.285-.735 2.748-1.104 4.391-1.104 1.828 0 3.326.379 4.496 1.137 1.168.759 1.994 1.818 2.473 3.181 1.963-2.878 4.518-4.317 7.664-4.317 2.461 0 4.354.678 5.676 2.034 1.324 1.355 1.986 3.444 1.986 6.264v16.947h-4.191v-15.556c0-1.675-.137-2.88-.408-3.616-.273-.737-.768-1.33-1.482-1.779-.717-.449-1.557-.674-2.521-.674-1.742 0-3.189.577-4.342 1.731-1.15 1.155-1.727 3.004-1.727 5.547v14.347h-4.193v-16.045c0-1.86-.34-3.255-1.021-4.186-.682-.93-1.797-1.395-3.346-1.395-1.178 0-2.266.31-3.266.93s-1.723 1.527-2.172 2.722c-.449 1.193-.674 2.915-.674 5.161v12.813h-4.197v.001zm-442.088-118.06v-8.246h-49.907v8.246h32.536v9.09h-18.34c-8.789 0-13.182 4.05-13.182 12.147 0 3.252.977 5.986 2.932 8.203 1.955 2.216 4.533 3.325 7.738 3.325 6.701 0 10.052-4.656 10.052-13.966h-7.952c0 3.873-.688 5.808-2.065 5.808-1.582 0-2.372-1.049-2.372-3.147 0-1.892.792-3.118 2.376-3.681.821-.295 2.406-.442 4.752-.442h16.062v21.236h8.729v-38.573h8.641zm-8.433-7.081l-19.758-22.782-5.668 5.788 20.236 22.257 5.19-5.263zm40.441 28.851v-13.124c-2.028 3.695-3.718 6.34-5.07 7.936-2.44 2.81-5.07 4.213-7.892 4.213-2.146 0-3.924-.599-5.334-1.796-1.41-1.196-2.116-2.859-2.116-4.987v-14.145h20.412v-8.113h-32.978v8.113h4.1v15.563c0 4.079 1.572 7.449 4.717 10.108 2.969 2.514 6.51 3.77 10.625 3.77 6.144-.001 10.655-2.513 13.536-7.538zm43.294-21.77v-8.246h-44.264v8.246h27.026v19.561c-.768.651-1.491 1.213-2.169 1.686l-8.556-9.618c.471-.125 1-.188 1.589-.188 1.443 0 3.122.281 5.035.842v-7.979c-1.823-.414-3.233-.621-4.232-.621-4.409 0-8.127 1.197-11.154 3.591-3.292 2.631-4.938 6.104-4.938 10.419 0 4.079 1.411 7.522 4.232 10.331 2.822 2.809 6.26 4.212 10.316 4.212 3.379 0 6.672-.976 9.876-2.926v9.267h8.685v-38.577h8.554zm-24.601 24.031c-.618.177-1.264.267-1.94.267-1.852 0-3.454-.576-4.806-1.729-1.44-1.211-2.16-2.732-2.16-4.565 0-1.301.265-2.396.793-3.281l8.113 9.308zm16.167-31.112l-19.757-22.782-5.668 5.788 20.235 22.257 5.19-5.263zm57.606 5.249c15.796 13.203 23.806 29.597 17.891 36.614-5.915 7.02-23.515 2.005-39.311-11.198-15.796-13.204-23.806-29.597-17.891-36.616s23.515-2.004 39.311 11.2z"/><path fill="#F26522" d="M197.703 27.953c15.687-13.333 33.245-18.49 39.217-11.521 5.973 6.97-1.902 23.429-17.588 36.761s-33.244 18.49-39.217 11.521c-5.973-6.97 1.902-23.428 17.588-36.761z"/><text transform="translate(312.5 69.719)" font-family="'Calibri'" font-size="36">V2-Beta</text></svg>